<svg class="bob" font-family="arial" font-size="14" height="400" width="312" xmlns="http://www.w3.org/2000/svg">
<defs>
<marker id="triangle" markerHeight="10" markerUnits="strokeWidth" markerWidth="10" orient="auto" refX="15" refY="10" viewBox="0 0 50 20">
<path d="M 0 0 L 30 10 L 0 20 z"/>
</marker>
</defs>
<style>

    line, path {
      stroke: black;
      stroke-width: 2;
      stroke-opacity: 1;
      fill-opacity: 1;
      stroke-linecap: round;
      stroke-linejoin: miter;
    }
    circle {
      stroke: black;
      stroke-width: 2;
      stroke-opacity: 1;
      fill-opacity: 1;
      stroke-linecap: round;
      stroke-linejoin: miter;
    }
    circle.solid {
      fill:black;
    }
    circle.open {
      fill:transparent;
    }
    tspan.head{
        fill: none;
        stroke: none;
    }
    
</style>
<path d=" M 64 72 A 4 4 0 0 0 60 76 L 60 80 M 64 72 L 72 72 M 64 72 L 72 72 L 80 72 M 72 72 L 80 72 L 88 72 M 80 72 L 88 72 L 96 72 M 88 72 L 96 72 L 104 72 M 96 72 L 104 72 L 112 72 M 104 72 L 112 72 L 120 72 M 112 72 L 120 72 M 124 76 A 4 4 0 0 0 120 72 M 124 76 L 124 80 M 160 72 A 4 4 0 0 0 156 76 L 156 80 M 160 72 L 168 72 M 160 72 L 168 72 L 176 72 M 168 72 L 176 72 L 184 72 M 176 72 L 184 72 L 192 72 M 184 72 L 192 72 L 200 72 M 192 72 L 200 72 L 208 72 M 200 72 L 208 72 M 212 76 A 4 4 0 0 0 208 72 M 212 76 L 212 80 M 248 72 A 4 4 0 0 0 244 76 L 244 80 M 248 72 L 256 72 M 248 72 L 256 72 L 264 72 M 256 72 L 264 72 L 272 72 M 264 72 L 272 72 L 280 72 M 272 72 L 280 72 L 288 72 M 280 72 L 288 72 L 296 72 M 288 72 L 296 72 L 304 72 M 296 72 L 304 72 M 308 76 A 4 4 0 0 0 304 72 M 308 76 L 308 80 M 60 80 L 60 96 M 60 80 L 60 96 M 124 80 L 124 96 M 124 80 L 124 96 M 156 80 L 156 96 M 156 80 L 156 96 M 212 80 L 212 96 M 212 80 L 212 96 M 244 80 L 244 96 M 244 80 L 244 96 M 308 80 L 308 96 M 308 80 L 308 96 M 60 100 L 60 96 M 60 100 A 4 4 0 0 0 64 104 L 72 104 M 64 104 L 72 104 L 80 104 M 72 104 L 80 104 M 84 108 L 84 112 M 88 104 L 96 104 M 88 104 L 96 104 L 104 104 M 96 104 L 104 104 L 112 104 M 104 104 L 112 104 L 120 104 M 112 104 L 120 104 M 124 100 L 124 96 M 120 104 A 4 4 0 0 0 124 100 M 156 100 L 156 96 M 156 100 A 4 4 0 0 0 160 104 L 168 104 M 160 104 L 168 104 L 176 104 M 168 104 L 176 104 M 184 104 A 4 4 0 0 0 180 108 A 4 4 0 0 0 176 104 M 184 104 L 192 104 M 184 104 L 192 104 L 200 104 M 192 104 L 200 104 L 208 104 M 200 104 L 208 104 M 212 100 L 212 96 M 208 104 A 4 4 0 0 0 212 100 M 244 100 L 244 96 M 244 100 A 4 4 0 0 0 248 104 L 256 104 M 248 104 L 256 104 L 264 104 M 256 104 L 264 104 M 272 104 A 4 4 0 0 0 268 108 A 4 4 0 0 0 264 104 M 272 104 L 280 104 M 272 104 L 280 104 L 288 104 M 280 104 L 288 104 L 296 104 M 288 104 L 296 104 L 304 104 M 296 104 L 304 104 M 308 100 L 308 96 M 304 104 A 4 4 0 0 0 308 100 M 84 112 L 84 128 M 84 112 L 84 128 M 180 128 L 180 144 M 180 128 L 180 144 M 268 128 L 268 144 M 268 128 L 268 144 M 180 144 L 180 160 M 180 144 L 180 160 M 268 144 L 268 160 M 268 144 L 268 160 M 24 168 A 4 4 0 0 0 20 172 L 20 176 M 24 168 L 32 168 M 24 168 L 32 168 L 40 168 M 32 168 L 40 168 L 48 168 M 40 168 L 48 168 L 56 168 M 48 168 L 56 168 L 64 168 M 56 168 L 64 168 L 72 168 M 64 168 L 72 168 L 80 168 M 72 168 L 80 168 M 84 164 A 4 4 0 0 0 88 168 M 80 168 A 4 4 0 0 0 84 164 M 88 168 L 96 168 M 88 168 L 96 168 L 104 168 M 96 168 L 104 168 L 112 168 M 104 168 L 112 168 L 120 168 M 112 168 L 120 168 L 128 168 M 120 168 L 128 168 L 136 168 M 128 168 L 136 168 M 140 172 A 4 4 0 0 0 136 168 M 140 172 L 140 176 M 180 160 L 180 176 M 180 160 L 180 176 M 268 160 L 268 176 M 268 160 L 268 176 M 20 176 L 20 192 M 20 176 L 20 192 M 144 184 L 152 184 M 144 184 L 152 184 L 160 184 M 152 184 L 160 184 L 168 184 M 160 184 L 168 184 L 176 184 M 168 184 L 176 184 M 180 180 L 180 176 M 176 184 A 4 4 0 0 0 180 180 M 268 176 L 268 192 M 268 176 L 268 192 M 20 192 L 28 200 M 32 200 L 40 200 M 32 200 L 40 200 L 48 200 M 40 200 L 48 200 L 56 200 M 48 200 L 56 200 L 64 200 M 56 200 L 64 200 L 72 200 M 64 200 L 72 200 L 80 200 M 72 200 L 80 200 M 84 204 L 84 208 M 88 200 L 96 200 M 88 200 L 96 200 L 104 200 M 96 200 L 104 200 L 112 200 M 104 200 L 112 200 L 120 200 M 112 200 L 120 200 L 128 200 M 120 200 L 128 200 L 136 200 M 128 200 L 136 200 M 140 196 L 140 192 M 136 200 A 4 4 0 0 0 140 196 M 268 192 L 268 208 M 268 192 L 268 208 M 84 208 L 84 224 M 84 208 L 84 224 M 268 208 L 268 224 M 268 208 L 268 224 M 28 224 L 28 240 M 28 224 L 28 240 M 268 224 L 268 240 M 268 224 L 268 240 M 28 240 L 28 256 M 28 240 L 28 256 M 268 240 L 268 256 M 268 240 L 268 256 M 24 264 A 4 4 0 0 0 20 268 L 20 272 M 28 260 L 28 256 M 32 264 L 40 264 M 32 264 L 40 264 L 48 264 M 40 264 L 48 264 L 56 264 M 48 264 L 56 264 L 64 264 M 56 264 L 64 264 L 72 264 M 64 264 L 72 264 L 80 264 M 72 264 L 80 264 M 84 260 A 4 4 0 0 0 88 264 M 80 264 A 4 4 0 0 0 84 260 M 88 264 L 96 264 M 88 264 L 96 264 L 104 264 M 96 264 L 104 264 L 112 264 M 104 264 L 112 264 L 120 264 M 112 264 L 120 264 L 128 264 M 120 264 L 128 264 L 136 264 M 128 264 L 136 264 L 144 264 M 136 264 L 144 264 L 152 264 M 144 264 L 152 264 M 156 268 A 4 4 0 0 0 152 264 M 156 268 L 156 272 M 268 256 L 268 272 M 268 256 L 268 272 M 20 272 L 20 288 M 20 272 L 20 288 M 156 272 L 156 288 M 156 272 L 156 288 M 268 272 L 268 288 M 268 272 L 268 288 M 20 288 L 28 296 M 32 296 L 40 296 M 32 296 L 40 296 L 48 296 M 40 296 L 48 296 L 56 296 M 48 296 L 56 296 L 64 296 M 56 296 L 64 296 L 72 296 M 64 296 L 72 296 L 80 296 M 72 296 L 80 296 M 84 300 L 84 304 M 88 296 L 96 296 M 88 296 L 96 296 L 104 296 M 96 296 L 104 296 L 112 296 M 104 296 L 112 296 L 120 296 M 112 296 L 120 296 L 128 296 M 120 296 L 128 296 L 136 296 M 128 296 L 136 296 L 144 296 M 136 296 L 144 296 L 152 296 M 144 296 L 152 296 M 156 292 L 156 288 M 152 296 A 4 4 0 0 0 156 292 M 268 288 L 268 304 M 268 288 L 268 304 M 84 304 L 84 320 M 84 304 L 84 320 M 268 304 L 268 320 M 268 304 L 268 320 M 28 320 L 28 336 M 28 320 L 28 336 M 268 320 L 268 336 M 268 320 L 268 336 M 28 336 L 28 352 M 28 336 L 28 352 M 268 336 L 268 352 M 268 336 L 268 352 M 24 360 A 4 4 0 0 0 20 364 L 20 368 M 28 356 L 28 352 M 32 360 L 40 360 M 32 360 L 40 360 L 48 360 M 40 360 L 48 360 L 56 360 M 48 360 L 56 360 L 64 360 M 56 360 L 64 360 L 72 360 M 64 360 L 72 360 L 80 360 M 72 360 L 80 360 M 84 356 A 4 4 0 0 0 88 360 M 80 360 A 4 4 0 0 0 84 356 M 88 360 L 96 360 M 88 360 L 96 360 L 104 360 M 96 360 L 104 360 L 112 360 M 104 360 L 112 360 L 120 360 M 112 360 L 120 360 L 128 360 M 120 360 L 128 360 L 136 360 M 128 360 L 136 360 L 144 360 M 136 360 L 144 360 L 152 360 M 144 360 L 152 360 L 160 360 M 152 360 L 160 360 L 168 360 M 160 360 L 168 360 M 172 364 A 4 4 0 0 0 168 360 M 172 364 L 172 368 M 268 352 L 268 368 M 268 352 L 268 368 M 20 368 L 20 384 M 20 368 L 20 384 M 176 376 L 184 376 M 176 376 L 184 376 L 192 376 M 184 376 L 192 376 L 200 376 M 192 376 L 200 376 L 208 376 M 200 376 L 208 376 L 216 376 M 208 376 L 216 376 L 224 376 M 216 376 L 224 376 L 232 376 M 224 376 L 232 376 L 240 376 M 232 376 L 240 376 L 248 376 M 240 376 L 248 376 L 256 376 M 248 376 L 256 376 L 264 376 M 256 376 L 264 376 M 268 372 L 268 368 M 264 376 A 4 4 0 0 0 268 372 M 20 388 L 20 384 M 20 388 A 4 4 0 0 0 24 392 L 32 392 M 24 392 L 32 392 L 40 392 M 32 392 L 40 392 L 48 392 M 40 392 L 48 392 L 56 392 M 48 392 L 56 392 L 64 392 M 56 392 L 64 392 L 72 392 M 64 392 L 72 392 L 80 392 M 72 392 L 80 392 L 88 392 M 80 392 L 88 392 L 96 392 M 88 392 L 96 392 L 104 392 M 96 392 L 104 392 L 112 392 M 104 392 L 112 392 L 120 392 M 112 392 L 120 392 L 128 392 M 120 392 L 128 392 L 136 392 M 128 392 L 136 392 L 144 392 M 136 392 L 144 392 L 152 392 M 144 392 L 152 392 L 160 392 M 152 392 L 160 392 L 168 392 M 160 392 L 168 392 M 172 388 L 172 384 M 168 392 A 4 4 0 0 0 172 388" fill="none"/>
<path d="" fill="none" stroke-dasharray="3 3"/>
<line marker-end="url(#triangle)" x1="180" x2="180" y1="128" y2="116"/>
<line marker-end="url(#triangle)" x1="268" x2="268" y1="128" y2="116"/>
<line marker-end="url(#triangle)" x1="84" x2="84" y1="128" y2="156"/>
<line marker-end="url(#triangle)" x1="84" x2="84" y1="128" y2="156"/>
<line marker-end="url(#triangle)" x1="84" x2="84" y1="144" y2="156"/>
<line marker-end="url(#triangle)" x1="28" x2="28" y1="224" y2="212"/>
<line marker-end="url(#triangle)" x1="84" x2="84" y1="224" y2="252"/>
<line marker-end="url(#triangle)" x1="84" x2="84" y1="224" y2="252"/>
<line marker-end="url(#triangle)" x1="84" x2="84" y1="240" y2="252"/>
<line marker-end="url(#triangle)" x1="28" x2="28" y1="320" y2="308"/>
<line marker-end="url(#triangle)" x1="84" x2="84" y1="320" y2="348"/>
<line marker-end="url(#triangle)" x1="84" x2="84" y1="320" y2="348"/>
<line marker-end="url(#triangle)" x1="84" x2="84" y1="336" y2="348"/>
<text x="25" y="28">
HOW
</text>
<text x="65" y="28">
LOGICAL
</text>
<text x="129" y="28">
SYSTEMS
</text>
<text x="201" y="28">
ARE
</text>
<text x="233" y="28">
MADE
</text>
<text x="25" y="44">
by
</text>
<text x="49" y="44">
Sven
</text>
<text x="89" y="44">
Nilsen
</text>
<text x="145" y="44">
2018
</text>
<text x="73" y="92">
start
</text>
<text x="169" y="92">
end
</text>
<text x="257" y="92">
error
</text>
<text x="145" y="172">
done
</text>
<text x="33" y="188">
create
</text>
<text x="89" y="188">
new
</text>
<text x="121" y="188">
X
</text>
<text x="89" y="220">
ok
</text>
<text x="33" y="252">
yes
</text>
<text x="33" y="284">
can
</text>
<text x="65" y="284">
I
</text>
<text x="81" y="284">
prove
</text>
<text x="129" y="284">
X?
</text>
<text x="89" y="316">
no
</text>
<text x="33" y="348">
ok
</text>
<text x="185" y="348">
X
</text>
<text x="201" y="348">
already
</text>
<text x="185" y="364">
added
</text>
<text x="33" y="380">
add
</text>
<text x="65" y="380">
assumption
</text>
<text x="153" y="380">
X
</text>
<circle class="open" cx="84" cy="104" r="4"/>
<circle class="open" cx="84" cy="104" r="4"/>
<circle class="open" cx="84" cy="104" r="4"/>
<circle class="open" cx="140" cy="184" r="4"/>
<circle class="open" cx="84" cy="200" r="4"/>
<circle class="open" cx="84" cy="200" r="4"/>
<circle class="open" cx="84" cy="200" r="4"/>
<circle class="open" cx="28" cy="264" r="4"/>
<circle class="open" cx="28" cy="264" r="4"/>
<circle class="open" cx="28" cy="264" r="4"/>
<circle class="open" cx="84" cy="296" r="4"/>
<circle class="open" cx="84" cy="296" r="4"/>
<circle class="open" cx="84" cy="296" r="4"/>
<circle class="open" cx="28" cy="360" r="4"/>
<circle class="open" cx="28" cy="360" r="4"/>
<circle class="open" cx="28" cy="360" r="4"/>
<circle class="open" cx="172" cy="376" r="4"/>
</svg>
